HIERARCHY
ROOT hip
{
  OFFSET 0 90.174 2.4664
  CHANNELS 6 Xposition Yposition Zposition Zrotation Xrotation Yrotation
  JOINT abdomen
  {
    OFFSET 0 -1.186 -1.5018
    CHANNELS 6 Xposition Yposition Zposition Zrotation Xrotation Yrotation
    JOINT abdomen2
    {
      OFFSET 0 9.964 0.2134
      CHANNELS 6 Xposition Yposition Zposition Zrotation Xrotation Yrotation
      JOINT chest
      {
        OFFSET 0 13.134 -3.2573
        CHANNELS 6 Xposition Yposition Zposition Zrotation Xrotation Yrotation
        JOINT neck
        {
          OFFSET 0 20.686 -1.6905
          CHANNELS 6 Xposition Yposition Zposition Zrotation Xrotation Yrotation
          JOINT head
          {
            OFFSET 0 7.238 -0.1237
            CHANNELS 6 Xposition Yposition Zposition Zrotation Xrotation Yrotation
            End Site
            {
              OFFSET 0 0 0
            }
          }
        }
        JOINT lCollar
        {
          OFFSET 1.7069 20.075 5.0056
          CHANNELS 6 Xposition Yposition Zposition Zrotation Xrotation Yrotation
          JOINT lShldr
          {
            OFFSET 13.6458 -0.047 -4.849
            CHANNELS 6 Xposition Yposition Zposition Zrotation Xrotation Yrotation
            JOINT lForeArm
            {
              OFFSET 28.3255 -0.9759 2.2888
              CHANNELS 6 Xposition Yposition Zposition Zrotation Xrotation Yrotation
              JOINT lHand
              {
                OFFSET 22.1583 -0.53 10.8316
                CHANNELS 6 Xposition Yposition Zposition Zrotation Xrotation Yrotation
                JOINT lThumb1
                {
                  OFFSET 0.786 0.112 2.5817
                  CHANNELS 6 Xposition Yposition Zposition Zrotation Xrotation Yrotation
                  JOINT lThumb2
                  {
                    OFFSET 0.3601 -0.878 4.2331
                    CHANNELS 6 Xposition Yposition Zposition Zrotation Xrotation Yrotation
                    JOINT lThumb2_End
                    {
                      OFFSET 1.8127 -1.216 2.2227
                      CHANNELS 6 Xposition Yposition Zposition Zrotation Xrotation Yrotation
                      End Site
                      {
                        OFFSET 0.0181 -0.0122 0.0222
                      }
                    }
                  }
                }
                JOINT lCarpal1
                {
                  OFFSET 0.9571 1.114 1.7695
                  CHANNELS 6 Xposition Yposition Zposition Zrotation Xrotation Yrotation
                  JOINT lIndex1
                  {
                    OFFSET 4.1246 0.487 4.1451
                    CHANNELS 6 Xposition Yposition Zposition Zrotation Xrotation Yrotation
                    JOINT lIndex2
                    {
                      OFFSET 3.4052 -1.454 2.7682
                      CHANNELS 6 Xposition Yposition Zposition Zrotation Xrotation Yrotation
                      JOINT lIndex2_End
                      {
                        OFFSET 1.4531 -1.795 1.2713
                        CHANNELS 6 Xposition Yposition Zposition Zrotation Xrotation Yrotation
                        End Site
                        {
                          OFFSET 0.0145 -0.0179 0.0127
                        }
                      }
                    }
                  }
                  JOINT lMid1
                  {
                    OFFSET 5.6954 0.21 2.1184
                    CHANNELS 6 Xposition Yposition Zposition Zrotation Xrotation Yrotation
                    JOINT lMid2
                    {
                      OFFSET 3.9766 -1.54 2.3863
                      CHANNELS 6 Xposition Yposition Zposition Zrotation Xrotation Yrotation
                      JOINT lMid2_End
                      {
                        OFFSET 1.4042 -1.926 1.125
                        CHANNELS 6 Xposition Yposition Zposition Zrotation Xrotation Yrotation
                        End Site
                        {
                          OFFSET 0.014 -0.0193 0.0113
                        }
                      }
                    }
                  }
                }
                JOINT lCarpal2
                {
                  OFFSET 2.0956 0.66 -0.3894
                  CHANNELS 6 Xposition Yposition Zposition Zrotation Xrotation Yrotation
                  JOINT lRing1
                  {
                    OFFSET 5.0395 -0.09 2.4971
                    CHANNELS 6 Xposition Yposition Zposition Zrotation Xrotation Yrotation
                    JOINT lRing2
                    {
                      OFFSET 3.7921 -1.552 1.4806
                      CHANNELS 6 Xposition Yposition Zposition Zrotation Xrotation Yrotation
                      JOINT lRing2_End
                      {
                        OFFSET 1.4655 -1.808 0.9609
                        CHANNELS 6 Xposition Yposition Zposition Zrotation Xrotation Yrotation
                        End Site
                        {
                          OFFSET 0.0147 -0.0181 0.0096
                        }
                      }
                    }
                  }
                  JOINT lPinky1
                  {
                    OFFSET 4.9141 -1.269 0.3591
                    CHANNELS 6 Xposition Yposition Zposition Zrotation Xrotation Yrotation
                    JOINT lPinky2
                    {
                      OFFSET 3.1477 -1.685 0.8462
                      CHANNELS 6 Xposition Yposition Zposition Zrotation Xrotation Yrotation
                      JOINT lPinky2_End
                      {
                        OFFSET 0.8055 -1.585 0.7955
                        CHANNELS 6 Xposition Yposition Zposition Zrotation Xrotation Yrotation
                        End Site
                        {
                          OFFSET 0.0081 -0.0158 0.008
                        }
                      }
                    }
                  }
                }
              }
            }
          }
        }
        JOINT rCollar
        {
          OFFSET -1.7069 20.075 5.0056
          CHANNELS 6 Xposition Yposition Zposition Zrotation Xrotation Yrotation
          JOINT rShldr
          {
            OFFSET -13.6458 -0.047 -4.849
            CHANNELS 6 Xposition Yposition Zposition Zrotation Xrotation Yrotation
            JOINT rForeArm
            {
              OFFSET -28.3255 -0.9759 2.2888
              CHANNELS 6 Xposition Yposition Zposition Zrotation Xrotation Yrotation
              JOINT rHand
              {
                OFFSET -22.1583 -0.53 10.8316
                CHANNELS 6 Xposition Yposition Zposition Zrotation Xrotation Yrotation
                JOINT rThumb1
                {
                  OFFSET -0.786 0.112 2.5817
                  CHANNELS 6 Xposition Yposition Zposition Zrotation Xrotation Yrotation
                  JOINT rThumb2
                  {
                    OFFSET -0.3601 -0.878 4.2331
                    CHANNELS 6 Xposition Yposition Zposition Zrotation Xrotation Yrotation
                    JOINT rThumb2_End
                    {
                      OFFSET -1.8127 -1.216 2.2227
                      CHANNELS 6 Xposition Yposition Zposition Zrotation Xrotation Yrotation
                      End Site
                      {
                        OFFSET -0.0181 -0.0122 0.0222
                      }
                    }
                  }
                }
                JOINT rCarpal1
                {
                  OFFSET -0.9571 1.114 1.7695
                  CHANNELS 6 Xposition Yposition Zposition Zrotation Xrotation Yrotation
                  JOINT rIndex1
                  {
                    OFFSET -4.1246 0.487 4.1451
                    CHANNELS 6 Xposition Yposition Zposition Zrotation Xrotation Yrotation
                    JOINT rIndex2
                    {
                      OFFSET -3.4052 -1.454 2.7682
                      CHANNELS 6 Xposition Yposition Zposition Zrotation Xrotation Yrotation
                      JOINT rIndex2_End
                      {
                        OFFSET -1.4531 -1.795 1.2713
                        CHANNELS 6 Xposition Yposition Zposition Zrotation Xrotation Yrotation
                        End Site
                        {
                          OFFSET -0.0145 -0.018 0.0127
                        }
                      }
                    }
                  }
                  JOINT rMid1
                  {
                    OFFSET -5.6954 0.21 2.1184
                    CHANNELS 6 Xposition Yposition Zposition Zrotation Xrotation Yrotation
                    JOINT rMid2
                    {
                      OFFSET -3.9766 -1.54 2.3863
                      CHANNELS 6 Xposition Yposition Zposition Zrotation Xrotation Yrotation
                      JOINT rMid2_End
                      {
                        OFFSET -1.4042 -1.926 1.125
                        CHANNELS 6 Xposition Yposition Zposition Zrotation Xrotation Yrotation
                        End Site
                        {
                          OFFSET -0.014 -0.0193 0.0113
                        }
                      }
                    }
                  }
                }
                JOINT rCarpal2
                {
                  OFFSET -2.0956 0.66 -0.3894
                  CHANNELS 6 Xposition Yposition Zposition Zrotation Xrotation Yrotation
                  JOINT rRing1
                  {
                    OFFSET -5.0395 -0.09 2.4971
                    CHANNELS 6 Xposition Yposition Zposition Zrotation Xrotation Yrotation
                    JOINT rRing2
                    {
                      OFFSET -3.7921 -1.552 1.4806
                      CHANNELS 6 Xposition Yposition Zposition Zrotation Xrotation Yrotation
                      JOINT rRing2_End
                      {
                        OFFSET -1.4655 -1.808 0.9609
                        CHANNELS 6 Xposition Yposition Zposition Zrotation Xrotation Yrotation
                        End Site
                        {
                          OFFSET -0.0147 -0.0181 0.0096
                        }
                      }
                    }
                  }
                  JOINT rPinky1
                  {
                    OFFSET -4.9141 -1.269 0.3592
                    CHANNELS 6 Xposition Yposition Zposition Zrotation Xrotation Yrotation
                    JOINT rPinky2
                    {
                      OFFSET -3.1477 -1.685 0.8462
                      CHANNELS 6 Xposition Yposition Zposition Zrotation Xrotation Yrotation
                      JOINT rPinky2_End
                      {
                        OFFSET -0.8055 -1.585 0.7955
                        CHANNELS 6 Xposition Yposition Zposition Zrotation Xrotation Yrotation
                        End Site
                        {
                          OFFSET -0.0081 -0.0158 0.008
                        }
                      }
                    }
                  }
                }
              }
            }
          }
        }
      }
    }
  }
  JOINT lThigh
  {
    OFFSET 8.367 -8.2066 0.5982
    CHANNELS 6 Xposition Yposition Zposition Zrotation Xrotation Yrotation
    JOINT lShin
    {
      OFFSET 2.1923 -43.463 -0.4932
      CHANNELS 6 Xposition Yposition Zposition Zrotation Xrotation Yrotation
      JOINT lFoot
      {
        OFFSET 0.7333 -45.8593 -2.6451
        CHANNELS 6 Xposition Yposition Zposition Zrotation Xrotation Yrotation
        End Site
        {
          OFFSET 2.6618 -4.2699 12.3931
        }
      }
    }
  }
  JOINT rThigh
  {
    OFFSET -8.367 -8.2066 0.5982
    CHANNELS 6 Xposition Yposition Zposition Zrotation Xrotation Yrotation
    JOINT rShin
    {
      OFFSET -2.1923 -43.463 -0.4931
      CHANNELS 6 Xposition Yposition Zposition Zrotation Xrotation Yrotation
      JOINT rFoot
      {
        OFFSET -0.7333 -45.8593 -2.6451
        CHANNELS 6 Xposition Yposition Zposition Zrotation Xrotation Yrotation
        End Site
        {
          OFFSET -2.6618 -4.2699 12.3931
        }
      }
    }
  }
}
MOTION
Frames:	4
Frame Time:	0.0333333
0 90.174 2.4664 0 0 -0 0 -1.186 -1.5018 0 0 -0 0 9.964 0.2134 0 0 -0 0 13.134 -3.2573 0 0 -0 0 20.686 -1.6905 0 0 -0 0 7.238 -0.1237 0 0 -0 1.7069 20.075 5.0056 0 0 -0 13.6458 -0.047 -4.849 1.66051 0.0835086 5.75766 28.3255 -0.9759 2.2888 -0.0175111 0.895433 15.7816 22.1583 -0.53 10.8316 7.95139e-016 -1.98785e-016 -0 0.786 0.112 2.5817 5.46658e-016 -3.97569e-016 -0 0.3601 -0.878 4.2331 5.96354e-016 0 -0 1.8127 -1.216 2.2227 3.97569e-016 1.98785e-016 9.54166e-015 0.9571 1.114 1.7695 1.49089e-016 -3.97569e-016 -0 4.1246 0.487 4.1451 6.4605e-016 0 3.18055e-015 3.4052 -1.454 2.7682 5.96354e-016 0 3.18055e-015 1.4531 -1.795 1.2713 8.94531e-016 -1.98785e-016 6.36111e-015 5.6954 0.21 2.1184 6.4605e-016 0 3.18055e-015 3.9766 -1.54 2.3863 5.96354e-016 0 3.18055e-015 1.4042 -1.926 1.125 8.94531e-016 -1.98785e-016 6.36111e-015 2.0956 0.66 -0.3894 1.49089e-016 -3.97569e-016 -0 5.0395 -0.09 2.4971 6.4605e-016 0 3.18055e-015 3.7921 -1.552 1.4806 5.96354e-016 0 3.18055e-015 1.4655 -1.808 0.9609 8.94531e-016 -1.98785e-016 6.36111e-015 4.9141 -1.269 0.3591 6.4605e-016 0 3.18055e-015 3.1477 -1.685 0.8462 5.96354e-016 0 3.18055e-015 0.8055 -1.585 0.7955 8.94531e-016 -1.98785e-016 6.36111e-015 -1.7069 20.075 5.0056 0 0 -0 -13.6458 -0.047 -4.849 -1.4496 0.0636048 -5.0245 -28.3255 -0.9759 2.2888 -1.74811 1.20616 -16.8394 -22.1583 -0.53 10.8316 -1.19271e-015 1.98785e-016 -3.18055e-015 -0.786 0.112 2.5817 -3.97569e-016 1.98785e-016 -3.18055e-015 -0.3601 -0.878 4.2331 -2.98177e-016 1.98785e-016 -3.18055e-015 -1.8127 -1.216 2.2227 -2.98177e-016 3.97569e-016 -0 -0.9571 1.114 1.7695 4.96962e-016 0 -6.36111e-015 -4.1246 0.487 4.1451 -9.93923e-017 3.97569e-016 -0 -3.4052 -1.454 2.7682 -8.94531e-016 5.96354e-016 -0 -1.4531 -1.795 1.2713 -3.97569e-016 3.97569e-016 -0 -5.6954 0.21 2.1184 -9.93923e-017 3.97569e-016 -0 -3.9766 -1.54 2.3863 -8.94531e-016 5.96354e-016 -0 -1.4042 -1.926 1.125 -3.97569e-016 3.97569e-016 -0 -2.0956 0.66 -0.3894 4.96962e-016 0 -6.36111e-015 -5.0395 -0.09 2.4971 -9.93923e-017 3.97569e-016 -0 -3.7921 -1.552 1.4806 -8.94531e-016 5.96354e-016 -0 -1.4655 -1.808 0.9609 -3.97569e-016 3.97569e-016 -0 -4.9141 -1.269 0.3592 -9.93923e-017 3.97569e-016 -0 -3.1477 -1.685 0.8462 -8.94531e-016 5.96354e-016 -0 -0.8055 -1.585 0.7955 -3.97569e-016 3.97569e-016 -0 8.367 -8.2066 0.5982 -4.66115 -1.03232 0.120763 2.1923 -43.463 -0.4932 0.00990601 1.55097 0.177175 0.7333 -45.8593 -2.6451 4.65196 -0.54114 -0.255042 -8.367 -8.2066 0.5982 4.66115 -1.03222 -0.120763 -2.1923 -43.463 -0.4931 -0.00990459 1.5509 -0.177176 -0.7333 -45.8593 -2.6451 -4.65196 -0.541171 0.255041 
-0.12111 55.8331 -3.47522 -0 -33.334 -0 0 -1.186 -1.5018 0.740667 -0.00208243 0.0739777 0 9.964 0.2134 1.48134 -0.00319021 0.147976 4.44089e-016 13.134 -3.2573 1.48133 -0.00319109 0.147976 8.88178e-016 20.686 -1.6905 -4.22272e-005 10.3701 8.63976e-006 -8.88178e-016 7.238 -0.1237 -6.35368e-007 5.92481 9.83347e-008 1.7069 20.075 5.0056 1.12073e-005 -4.2688e-009 9.85858e-007 13.6458 -0.047 -4.849 -7.85246 7.60061 10.3968 28.3255 -0.9759 2.2888 2.32467 7.62269 3.9115 22.1583 -0.53 10.8316 -7.92725 3.12751 0.071868 0.786 0.112 2.5817 1.961e-007 -1.03828e-007 1.99158e-006 0.3601 -0.878 4.2331 -8.39696e-008 4.32837e-009 -1.15549e-006 1.8127 -1.216 2.2227 -1.47607e-006 6.84247e-008 2.21584e-006 0.9571 1.114 1.7695 1.98785e-015 -3.18055e-015 3.18055e-015 4.1246 0.487 4.1451 1.961e-007 -1.03828e-007 1.99158e-006 3.4052 -1.454 2.7682 -8.39696e-008 4.32837e-009 -1.15549e-006 1.4531 -1.795 1.2713 -1.47607e-006 6.84247e-008 2.21584e-006 5.6954 0.21 2.1184 1.961e-007 -1.03828e-007 1.99158e-006 3.9766 -1.54 2.3863 -8.39696e-008 4.32837e-009 -1.15549e-006 1.4042 -1.926 1.125 -1.47607e-006 6.84247e-008 2.21584e-006 2.0956 0.66 -0.3894 1.98785e-015 -3.18055e-015 3.18055e-015 5.0395 -0.09 2.4971 1.961e-007 -1.03828e-007 1.99158e-006 3.7921 -1.552 1.4806 -8.39696e-008 4.32837e-009 -1.15549e-006 1.4655 -1.808 0.9609 -1.47607e-006 6.84247e-008 2.21584e-006 4.9141 -1.269 0.3591 1.961e-007 -1.03828e-007 1.99158e-006 3.1477 -1.685 0.8462 -8.39696e-008 4.32837e-009 -1.15549e-006 0.8055 -1.585 0.7955 -1.47607e-006 6.84247e-008 2.21584e-006 -1.7069 20.075 5.0056 1.0587e-005 -3.70451 1.0724e-006 -13.6458 -0.047 -4.849 -0.447442 -21.7176 11.1542 -28.3255 -0.9759 2.2888 5.43648 -4.3006 30.1559 -22.1583 -0.53 10.8316 -3.43895 -1.70432 5.41247 -0.786 0.112 2.5817 -6.36111e-015 -1.59028e-015 1.59028e-015 -0.3601 -0.878 4.2331 8.82781e-032 1.59028e-015 -3.18055e-015 -1.8127 -1.216 2.2227 -3.18055e-015 3.18055e-015 -7.95139e-016 -0.9571 1.114 1.7695 -3.18055e-015 1.59028e-015 2.38542e-015 -4.1246 0.487 4.1451 -3.18055e-015 6.36111e-015 3.97569e-015 -3.4052 -1.454 2.7682 1.98626e-031 4.77083e-015 -2.38542e-015 -1.4531 -1.795 1.2713 -6.36111e-015 3.18055e-015 7.95139e-016 -5.6954 0.21 2.1184 -3.18055e-015 6.36111e-015 3.97569e-015 -3.9766 -1.54 2.3863 1.98626e-031 4.77083e-015 -2.38542e-015 -1.4042 -1.926 1.125 -6.36111e-015 3.18055e-015 7.95139e-016 -2.0956 0.66 -0.3894 -3.18055e-015 1.59028e-015 2.38542e-015 -5.0395 -0.09 2.4971 -3.18055e-015 6.36111e-015 3.97569e-015 -3.7921 -1.552 1.4806 1.98626e-031 4.77083e-015 -2.38542e-015 -1.4655 -1.808 0.9609 -6.36111e-015 3.18055e-015 7.95139e-016 -4.9141 -1.269 0.3592 -3.18055e-015 6.36111e-015 3.97569e-015 -3.1477 -1.685 0.8462 1.98626e-031 4.77083e-015 -2.38542e-015 -0.8055 -1.585 0.7955 -6.36111e-015 3.18055e-015 7.95139e-016 8.367 -8.2066 0.5982 0.651269 -0.351758 0.152495 2.1923 -43.463 -0.4932 0.0533752 0.269576 1.15926 0.7333 -45.8593 -2.6451 6.87512 18.4083 -2.62882 -8.367 -8.2066 0.5982 0.90143 -16.1658 -3.29529 -2.1923 -43.463 -0.4931 -0.154718 33.3653 -1.92677 -0.7333 -45.8593 -2.6451 -5.06444 11.1834 0.764482 
-0.313457 18.0855 -8.0494 -0 -66.6681 -0 0 -1.186 -1.5018 1.48132 -0.00797275 0.147872 0 9.964 0.2134 2.96266 -0.0121207 0.295901 2.22045e-016 13.134 -3.2573 2.96265 -0.0121131 0.2959 0 20.686 -1.6905 1.33532e-005 20.7397 1.84662e-005 0 7.238 -0.1237 -2.01912e-007 11.8496 1.18079e-006 1.7069 20.075 5.0056 5.76003e-005 -1.13107e-005 5.41804e-006 13.6458 -0.047 -4.849 -18.6336 14.9624 15.2838 28.3255 -0.9759 2.2888 7.45356 13.1181 -8.49506 22.1583 -0.53 10.8316 -15.8937 6.21509 0.577035 0.786 0.112 2.5817 2.38542e-015 -6.36111e-015 -0 0.3601 -0.878 4.2331 -4.47959e-007 3.28741e-007 -1.61307e-006 1.8127 -1.216 2.2227 -5.56597e-015 -9.54166e-015 -4.77083e-015 0.9571 1.114 1.7695 2.38542e-015 -3.18055e-015 1.59028e-015 4.1246 0.487 4.1451 7.15625e-015 -3.18055e-015 4.77083e-015 3.4052 -1.454 2.7682 -4.47959e-007 3.28741e-007 -1.61307e-006 1.4531 -1.795 1.2713 1.59028e-015 -1.27222e-014 -3.18055e-015 5.6954 0.21 2.1184 7.15625e-015 -3.18055e-015 4.77083e-015 3.9766 -1.54 2.3863 -4.47959e-007 3.28741e-007 -1.61307e-006 1.4042 -1.926 1.125 1.59028e-015 -1.27222e-014 -3.18055e-015 2.0956 0.66 -0.3894 2.38542e-015 -3.18055e-015 1.59028e-015 5.0395 -0.09 2.4971 7.15625e-015 -3.18055e-015 4.77083e-015 3.7921 -1.552 1.4806 -4.47959e-007 3.28741e-007 -1.61307e-006 1.4655 -1.808 0.9609 1.59028e-015 -1.27222e-014 -3.18055e-015 4.9141 -1.269 0.3591 7.15625e-015 -3.18055e-015 4.77083e-015 3.1477 -1.685 0.8462 -4.47959e-007 3.28741e-007 -1.61307e-006 0.8055 -1.585 0.7955 1.59028e-015 -1.27222e-014 -3.18055e-015 -1.7069 20.075 5.0056 5.81361e-005 -7.40903 5.39509e-006 -13.6458 -0.047 -4.849 15.0517 -37.7142 34.303 -28.3255 -0.9759 2.2888 16.5185 -1.07467 77.1446 -22.1583 -0.53 10.8316 -6.85462 -3.39684 10.7441 -0.786 0.112 2.5817 4.60475e-007 5.30458e-007 -4.80051e-007 -0.3601 -0.878 4.2331 -4.60475e-007 -5.30458e-007 4.80051e-007 -1.8127 -1.216 2.2227 -9.54166e-015 -3.18055e-015 6.36111e-015 -0.9571 1.114 1.7695 3.18055e-015 -3.18055e-015 1.59028e-015 -4.1246 0.487 4.1451 4.60475e-007 5.30458e-007 -4.80051e-007 -3.4052 -1.454 2.7682 -4.60475e-007 -5.30458e-007 4.80051e-007 -1.4531 -1.795 1.2713 8.82781e-032 -3.18055e-015 1.59028e-015 -5.6954 0.21 2.1184 4.60475e-007 5.30458e-007 -4.80051e-007 -3.9766 -1.54 2.3863 -4.60475e-007 -5.30458e-007 4.80051e-007 -1.4042 -1.926 1.125 8.82781e-032 -3.18055e-015 1.59028e-015 -2.0956 0.66 -0.3894 3.18055e-015 -3.18055e-015 1.59028e-015 -5.0395 -0.09 2.4971 4.60475e-007 5.30458e-007 -4.80051e-007 -3.7921 -1.552 1.4806 -4.60475e-007 -5.30458e-007 4.80051e-007 -1.4655 -1.808 0.9609 8.82781e-032 -3.18055e-015 1.59028e-015 -4.9141 -1.269 0.3592 4.60475e-007 5.30458e-007 -4.80051e-007 -3.1477 -1.685 0.8462 -4.60475e-007 -5.30458e-007 4.80051e-007 -0.8055 -1.585 0.7955 8.82781e-032 -3.18055e-015 1.59028e-015 8.367 -8.2066 0.5982 6.01708 -0.0643527 0.168351 2.1923 -43.463 -0.4932 0.104355 -0.303218 2.27246 0.7333 -45.8593 -2.6451 11.0067 36.8736 -6.04152 -8.367 -8.2066 0.5982 -4.29127 -31.8283 -7.39543 -2.1923 -43.463 -0.4931 -0.430732 66.1898 -2.28858 -0.7333 -45.8593 -2.6451 -5.17562 22.5831 -0.499251 
-0.52333 -9.50892 -9.56066 -180 -89.9981 -180 0 -1.186 -1.5018 1.9998 -0.014381 0.199512 5.55112e-017 9.964 0.2134 3.99963 -0.0217713 0.399404 -4.44089e-016 13.134 -3.2573 3.99963 -0.0217863 0.399405 1.77636e-015 20.686 -1.6905 -5.2326e-005 27.9976 1.00878e-005 0 7.238 -0.1237 -1.24406e-006 15.997 6.23965e-007 1.7069 20.075 5.0056 -4.81373e-005 -9.49237e-006 -2.51212e-006 13.6458 -0.047 -4.849 -26.9869 19.9328 18.9893 28.3255 -0.9759 2.2888 12.5238 15.7692 -17.4659 22.1583 -0.53 10.8316 -21.518 8.32035 1.1879 0.786 0.112 2.5817 -1.59028e-015 -9.54166e-015 -3.18055e-015 0.3601 -0.878 4.2331 -4.77083e-015 -1.59028e-014 -0 1.8127 -1.216 2.2227 -4.77083e-015 -6.36111e-015 -0 0.9571 1.114 1.7695 -1.59028e-015 0 -3.18055e-015 4.1246 0.487 4.1451 2.64834e-030 -1.59028e-014 9.54166e-015 3.4052 -1.454 2.7682 -1.59028e-015 -6.36111e-015 -0 1.4531 -1.795 1.2713 1.59028e-015 -6.36111e-015 3.18055e-015 5.6954 0.21 2.1184 2.64834e-030 -1.59028e-014 9.54166e-015 3.9766 -1.54 2.3863 -1.59028e-015 -6.36111e-015 -0 1.4042 -1.926 1.125 1.59028e-015 -6.36111e-015 3.18055e-015 2.0956 0.66 -0.3894 -1.59028e-015 0 -3.18055e-015 5.0395 -0.09 2.4971 2.64834e-030 -1.59028e-014 9.54166e-015 3.7921 -1.552 1.4806 -1.59028e-015 -6.36111e-015 -0 1.4655 -1.808 0.9609 1.59028e-015 -6.36111e-015 3.18055e-015 4.9141 -1.269 0.3591 2.64834e-030 -1.59028e-014 9.54166e-015 3.1477 -1.685 0.8462 -1.59028e-015 -6.36111e-015 -0 0.8055 -1.585 0.7955 1.59028e-015 -6.36111e-015 3.18055e-015 -1.7069 20.075 5.0056 -4.98354e-005 -10.0022 -4.26446e-006 -13.6458 -0.047 -4.849 34.1994 -41.2938 55.2713 -28.3255 -0.9759 2.2888 20.6923 6.48141 109.29 -22.1583 -0.53 10.8316 -9.23459 -4.5705 14.4296 -0.786 0.112 2.5817 1.76556e-031 3.18055e-015 -3.18055e-015 -0.3601 -0.878 4.2331 -2.5962e-006 -1.15342e-006 1.4433e-006 -1.8127 -1.216 2.2227 3.18055e-015 -3.18055e-015 -0 -0.9571 1.114 1.7695 1.76556e-031 3.18055e-015 -3.18055e-015 -4.1246 0.487 4.1451 3.18055e-015 -2.06736e-014 1.27222e-014 -3.4052 -1.454 2.7682 -2.5962e-006 -1.15342e-006 1.4433e-006 -1.4531 -1.795 1.2713 -6.36111e-015 1.59028e-015 3.18055e-015 -5.6954 0.21 2.1184 3.18055e-015 -2.06736e-014 1.27222e-014 -3.9766 -1.54 2.3863 -2.5962e-006 -1.15342e-006 1.4433e-006 -1.4042 -1.926 1.125 -6.36111e-015 1.59028e-015 3.18055e-015 -2.0956 0.66 -0.3894 1.76556e-031 3.18055e-015 -3.18055e-015 -5.0395 -0.09 2.4971 3.18055e-015 -2.06736e-014 1.27222e-014 -3.7921 -1.552 1.4806 -2.5962e-006 -1.15342e-006 1.4433e-006 -1.4655 -1.808 0.9609 -6.36111e-015 1.59028e-015 3.18055e-015 -4.9141 -1.269 0.3592 3.18055e-015 -2.06736e-014 1.27222e-014 -3.1477 -1.685 0.8462 -2.5962e-006 -1.15342e-006 1.4433e-006 -0.8055 -1.585 0.7955 -6.36111e-015 1.59028e-015 3.18055e-015 8.367 -8.2066 0.5982 9.82697 0.106124 0.184331 2.1923 -43.463 -0.4932 0.145845 -0.314545 3.21916 0.7333 -45.8593 -2.6451 15.8742 49.2133 -10.0034 -8.367 -8.2066 0.5982 -9.36379 -42.9539 -11.8966 -2.1923 -43.463 -0.4931 -24.433 89.3531 20.2785 -0.7333 -45.8593 -2.6451 -5.16824 30.4858 -1.11328 
